RobotoSerifDisplay-RegularWdth150 01m.ufo
<glyph name="slash" format="2">
  <advance width="271"/>
  <unicode hex="002F"/>
  <outline>
    <contour>
      <point x="231" y="749" type="line"/>
      <point x="-28" y="-129" type="line"/>
      <point x="7" y="-129" type="line"/>
      <point x="266" y="749" type="line"/>
    </contour>
  </outline>
</glyph>
<glyph name="G" format="2">
  <advance width="477"/>
  <unicode hex="0047"/>
  <outline>
    <contour>
      <point x="413" y="286" type="line" smooth="yes"/>
      <point x="413" y="315"/>
      <point x="436" y="322"/>
      <point x="452" y="322" type="curve" smooth="yes"/>
      <point x="457" y="322" type="line"/>
      <point x="457" y="347" type="line"/>
      <point x="272" y="347" type="line"/>
      <point x="272" y="322" type="line"/>
      <point x="277" y="322" type="line" smooth="yes"/>
      <point x="310" y="322"/>
      <point x="335" y="315"/>
      <point x="335" y="286" type="curve"/>
      <point x="335" y="67" type="line"/>
      <point x="325" y="54"/>
      <point x="298" y="25.0"/>
      <point x="247" y="25.0" type="curve" smooth="yes"/>
      <point x="140" y="25"/>
      <point x="113" y="152"/>
      <point x="113" y="355" type="curve" smooth="yes"/>
      <point x="113" y="555"/>
      <point x="141" y="685"/>
      <point x="242" y="685" type="curve" smooth="yes"/>
      <point x="300" y="685"/>
      <point x="351" y="641"/>
      <point x="378" y="526" type="curve"/>
      <point x="405" y="526" type="line"/>
      <point x="405" y="710" type="line"/>
      <point x="377" y="710" type="line"/>
      <point x="366" y="604" type="line"/>
      <point x="385" y="586" type="line"/>
      <point x="372" y="670"/>
      <point x="317" y="720"/>
      <point x="241" y="720.0" type="curve" smooth="yes"/>
      <point x="101" y="720.0"/>
      <point x="25" y="572"/>
      <point x="25" y="355" type="curve" smooth="yes"/>
      <point x="25" y="138"/>
      <point x="101" y="-10"/>
      <point x="243.0" y="-10.0" type="curve" smooth="yes"/>
      <point x="331" y="-10"/>
      <point x="391" y="45"/>
      <point x="413" y="93" type="curve"/>
    </contour>
  </outline>
</glyph>
<glyph name="Y" format="2">
  <advance width="400"/>
  <unicode hex="0059"/>
  <guideline x="132" y="666" angle="292.29507605935066" identifier="m9R9oiGSpO"/>
  <guideline x="359" y="654" angle="249.17679562131372" identifier="ToalnRrsxd"/>
  <outline>
    <contour>
      <point x="164" y="328" type="line"/>
      <point x="164" y="65" type="line" smooth="yes"/>
      <point x="164" y="36"/>
      <point x="139" y="30"/>
      <point x="112" y="30" type="curve" smooth="yes"/>
      <point x="101" y="30" type="line"/>
      <point x="101" y="0" type="line"/>
      <point x="310" y="0" type="line"/>
      <point x="310" y="30" type="line"/>
      <point x="299" y="30" type="line" smooth="yes"/>
      <point x="272" y="30"/>
      <point x="247" y="36"/>
      <point x="247" y="65" type="curve" smooth="yes"/>
      <point x="247" y="328" type="line"/>
      <point x="240" y="293" type="line"/>
      <point x="355" y="615" type="line" smooth="yes"/>
      <point x="371" y="661"/>
      <point x="385" y="680"/>
      <point x="405" y="680" type="curve" smooth="yes"/>
      <point x="410" y="680" type="line"/>
      <point x="410" y="710" type="line"/>
      <point x="274" y="710" type="line"/>
      <point x="274" y="680" type="line"/>
      <point x="292" y="680" type="line" smooth="yes"/>
      <point x="324" y="680"/>
      <point x="339" y="667"/>
      <point x="335" y="655" type="curve" smooth="yes"/>
      <point x="221" y="330" type="line"/>
      <point x="239" y="331" type="line"/>
      <point x="112" y="667" type="line" smooth="yes"/>
      <point x="109" y="675"/>
      <point x="137" y="680"/>
      <point x="159" y="680" type="curve" smooth="yes"/>
      <point x="170" y="680" type="line"/>
      <point x="170" y="710" type="line"/>
      <point x="-8" y="710" type="line"/>
      <point x="-8" y="680" type="line"/>
      <point x="-4" y="680" type="line" smooth="yes"/>
      <point x="12" y="680"/>
      <point x="23" y="677"/>
      <point x="33" y="651" type="curve" smooth="yes"/>
      <point x="172" y="291" type="line"/>
    </contour>
  </outline>
</glyph>
<glyph name="cent" format="2">
  <advance width="393"/>
  <unicode hex="00A2"/>
  <outline>
    <contour>
      <point x="229.0475" y="22.95" type="curve" smooth="yes"/>
      <point x="148.7575" y="22.95"/>
      <point x="107.565" y="117.1512719298225"/>
      <point x="107.565" y="258.8" type="curve" smooth="yes"/>
      <point x="107.565" y="398.1989285714275"/>
      <point x="144.8775" y="492.9"/>
      <point x="227.9175" y="492.9" type="curve" smooth="yes"/>
      <point x="276.5825" y="492.9"/>
      <point x="311.34499999999997" y="460.85"/>
      <point x="326.105" y="426.0" type="curve"/>
      <point x="335.437416049855" y="447.851419222615"/>
      <point x="320.4399856070325" y="482.4013441385025"/>
      <point x="299.94" y="482.9" type="curve"/>
      <point x="299.94" y="370.6" type="line"/>
      <point x="360.98" y="370.6" type="line"/>
      <point x="360.98" y="470.85" type="line"/>
      <point x="337.1475" y="498.4"/>
      <point x="289.515" y="527.8"/>
      <point x="226.45499999999998" y="527.8" type="curve" smooth="yes"/>
      <point x="108.6375" y="527.8"/>
      <point x="30.497500000000002" y="416.5"/>
      <point x="30.497500000000002" y="258.8" type="curve" smooth="yes"/>
      <point x="30.497500000000002" y="99.1"/>
      <point x="111.0875" y="-12.1"/>
      <point x="220.65" y="-12.1" type="curve" smooth="yes"/>
      <point x="289.72" y="-12.1"/>
      <point x="338.6075" y="30.950000000000003"/>
      <point x="366.9025" y="104.75" type="curve"/>
      <point x="341.82" y="127.1" type="line"/>
      <point x="320.70141375439" y="67.75267688686"/>
      <point x="284.6675" y="22.95"/>
    </contour>
    <contour>
      <point x="204.6525" y="623.0" type="line"/>
      <point x="204.6525" y="513.6" type="line"/>
      <point x="206.9325" y="501.4" type="line"/>
      <point x="206.9325" y="7.7" type="line"/>
      <point x="204.6525" y="1.1500000000000004" type="line"/>
      <point x="204.6525" y="-126.0" type="line"/>
      <point x="238.10999999999999" y="-126.0" type="line"/>
      <point x="238.10999999999999" y="-0.3999999999999999" type="line"/>
      <point x="235.82999999999998" y="3.200000000000001" type="line"/>
      <point x="235.82999999999998" y="503.7" type="line"/>
      <point x="238.10999999999999" y="513.05" type="line"/>
      <point x="238.10999999999999" y="623.0" type="line"/>
    </contour>
  </outline>
</glyph>
<glyph name="logicalnot" format="2">
  <advance width="400"/>
  <unicode hex="00AC"/>
  <outline>
    <contour>
      <point x="303" y="360" type="line"/>
      <point x="303" y="169" type="line"/>
      <point x="337" y="169" type="line"/>
      <point x="337" y="373" type="line"/>
      <point x="66" y="373" type="line"/>
      <point x="66" y="338" type="line"/>
      <point x="319" y="338" type="line"/>
    </contour>
  </outline>
</glyph>
<glyph name="Thorn" format="2">
  <advance width="448"/>
  <unicode hex="00DE"/>
  <outline>
    <contour>
      <point x="82" y="65" type="line" smooth="yes"/>
      <point x="82" y="37"/>
      <point x="57" y="30"/>
      <point x="29" y="30" type="curve" smooth="yes"/>
      <point x="24" y="30" type="line"/>
      <point x="24" y="0" type="line"/>
      <point x="222" y="0" type="line"/>
      <point x="222" y="30" type="line"/>
      <point x="217" y="30" type="line" smooth="yes"/>
      <point x="189" y="30"/>
      <point x="165" y="37"/>
      <point x="165" y="65" type="curve" smooth="yes"/>
      <point x="165" y="645" type="line" smooth="yes"/>
      <point x="165" y="673"/>
      <point x="189" y="680"/>
      <point x="217" y="680" type="curve" smooth="yes"/>
      <point x="222" y="680" type="line"/>
      <point x="222" y="710" type="line"/>
      <point x="24" y="710" type="line"/>
      <point x="24" y="680" type="line"/>
      <point x="29" y="680" type="line" smooth="yes"/>
      <point x="57" y="680"/>
      <point x="82" y="673"/>
      <point x="82" y="645" type="curve" smooth="yes"/>
    </contour>
    <contour>
      <point x="138" y="560" type="line"/>
      <point x="138" y="527" type="line"/>
      <point x="233" y="527" type="line" smooth="yes"/>
      <point x="312" y="527"/>
      <point x="349.0" y="470.5"/>
      <point x="349.0" y="361.5" type="curve" smooth="yes"/>
      <point x="349" y="252.5"/>
      <point x="312" y="192"/>
      <point x="229" y="192" type="curve" smooth="yes"/>
      <point x="135" y="192" type="line"/>
      <point x="135" y="160" type="line"/>
      <point x="237" y="160" type="line" smooth="yes"/>
      <point x="361" y="160"/>
      <point x="433" y="234.5"/>
      <point x="433.0" y="361.5" type="curve" smooth="yes"/>
      <point x="433.0" y="488.5"/>
      <point x="364" y="560"/>
      <point x="241" y="560" type="curve" smooth="yes"/>
    </contour>
  </outline>
</glyph>
<glyph name="hbar" format="2">
  <advance width="450"/>
  <unicode hex="0127"/>
  <outline>
    <contour>
      <point x="281" y="634" type="line"/>
      <point x="7" y="634" type="line"/>
      <point x="7" y="599" type="line"/>
      <point x="281" y="599" type="line"/>
    </contour>
    <component base="h"/>
  </outline>
</glyph>
<glyph name="Lslash" format="2">
  <advance width="413"/>
  <unicode hex="0141"/>
  <outline>
    <contour>
      <point x="22.0025" y="206.35" type="line"/>
      <point x="257.92" y="487.95" type="line"/>
      <point x="308.2" y="538.65" type="line"/>
      <point x="72.28249999999997" y="257.05" type="line"/>
    </contour>
    <component base="L" xOffset="-68.0425"/>
  </outline>
</glyph>
<glyph name="oogonek" format="2">
  <advance width="429"/>
  <unicode hex="01EB"/>
  <outline>
    <contour>
      <point x="214.32" y="24.95" type="curve"/>
      <point x="143.76" y="24.95"/>
      <point x="107.675" y="119.65"/>
      <point x="107.675" y="257.85" type="curve" smooth="yes"/>
      <point x="107.675" y="397.0"/>
      <point x="143.76" y="492.65"/>
      <point x="214.32" y="492.65" type="curve" smooth="yes"/>
      <point x="284.88" y="492.65"/>
      <point x="320.965" y="397.0"/>
      <point x="320.965" y="257.85" type="curve" smooth="yes"/>
      <point x="320.965" y="119.65"/>
      <point x="284.88" y="24.95"/>
    </contour>
    <contour>
      <point x="252.0075" y="-236.5" type="curve" smooth="yes"/>
      <point x="291.955" y="-236.5"/>
      <point x="313.4125" y="-216.85"/>
      <point x="331.9025" y="-188.8" type="curve"/>
      <point x="317.605" y="-168.15" type="line"/>
      <point x="306.3725" y="-184.75"/>
      <point x="292.7725" y="-199.0"/>
      <point x="275.2725" y="-199.0" type="curve" smooth="yes"/>
      <point x="254.5675" y="-199.0"/>
      <point x="242.0125" y="-177.45"/>
      <point x="242.0125" y="-136.2" type="curve" smooth="yes"/>
      <point x="242.0125" y="-87.15"/>
      <point x="261.7825" y="-35.5"/>
      <point x="324.9575" y="32.15" type="curve" smooth="yes"/>
      <point x="374.43" y="83.75"/>
      <point x="403.3025" y="161.45"/>
      <point x="403.3025" y="257.85" type="curve" smooth="yes"/>
      <point x="403.3025" y="416.0"/>
      <point x="324.9575" y="527.8"/>
      <point x="214.32" y="527.8" type="curve" smooth="yes"/>
      <point x="103.6825" y="527.8"/>
      <point x="25.3375" y="416.0"/>
      <point x="25.3375" y="257.85" type="curve" smooth="yes"/>
      <point x="25.3375" y="99.7"/>
      <point x="103.6825" y="-10.2"/>
      <point x="214.32" y="-10.2" type="curve"/>
      <point x="254.975" y="-10.2"/>
      <point x="289.225" y="9.2"/>
      <point x="318.4525" y="38.5" type="curve"/>
      <point x="313.96" y="45.849999999999994" type="line"/>
      <point x="230.765" y="-21.3"/>
      <point x="172.265" y="-75.05"/>
      <point x="172.265" y="-144.7" type="curve" smooth="yes"/>
      <point x="172.265" y="-202.35"/>
      <point x="205.105" y="-236.5"/>
    </contour>
  </outline>
</glyph>
<glyph name="verticallinemod" format="2">
  <advance width="350"/>
  <unicode hex="02C8"/>
  <outline>
    <contour>
      <point x="158.915" y="547.0" type="line"/>
      <point x="192.2075" y="547.0" type="line"/>
      <point x="192.2075" y="750.0" type="line"/>
      <point x="158.915" y="750.0" type="line"/>
    </contour>
  </outline>
</glyph>
<glyph name="breve" format="2">
  <advance width="400"/>
  <unicode hex="02D8"/>
  <anchor x="201" y="517.0" name="_top"/>
  <outline>
    <contour>
      <point x="201" y="587" type="curve" smooth="yes"/>
      <point x="146" y="587"/>
      <point x="106" y="637"/>
      <point x="103" y="746" type="curve"/>
      <point x="132" y="746" type="line"/>
      <point x="139" y="686"/>
      <point x="163" y="657"/>
      <point x="203" y="657" type="curve" smooth="yes"/>
      <point x="244" y="657"/>
      <point x="266" y="686"/>
      <point x="273" y="746" type="curve"/>
      <point x="300" y="746" type="line"/>
      <point x="297" y="637"/>
      <point x="257" y="587"/>
    </contour>
  </outline>
</glyph>
<glyph name="ring" format="2">
  <advance width="350"/>
  <unicode hex="02DA"/>
  <anchor x="175.2" y="526.0" name="_top"/>
  <outline>
    <contour>
      <point x="137.6075" y="679.1" type="curve" smooth="yes"/>
      <point x="137.6075" y="731.9"/>
      <point x="154.7125" y="751.55"/>
      <point x="175.2" y="751.55" type="curve" smooth="yes"/>
      <point x="196.6875" y="751.55"/>
      <point x="213.6425" y="731.9"/>
      <point x="213.6425" y="679.1" type="curve" smooth="yes"/>
      <point x="213.6425" y="626.35"/>
      <point x="196.71" y="606.65"/>
      <point x="175.2" y="606.65" type="curve" smooth="yes"/>
      <point x="154.69" y="606.65"/>
      <point x="137.6075" y="626.35"/>
    </contour>
    <contour>
      <point x="259.47" y="679.1" type="curve" smooth="yes"/>
      <point x="259.47" y="741.75"/>
      <point x="221.914737762245" y="777.75"/>
      <point x="175.2" y="777.75" type="curve" smooth="yes"/>
      <point x="129.335262237755" y="777.75"/>
      <point x="91.78" y="741.75"/>
      <point x="91.78" y="679.1" type="curve" smooth="yes"/>
      <point x="91.78" y="616.45"/>
      <point x="129.335262237755" y="580.45"/>
      <point x="175.2" y="580.45" type="curve" smooth="yes"/>
      <point x="221.914737762245" y="580.45"/>
      <point x="259.47" y="616.45"/>
    </contour>
  </outline>
</glyph>
<glyph name="tilde" format="2">
  <advance width="351"/>
  <unicode hex="02DC"/>
  <anchor x="175.2" y="516.0" name="_top"/>
  <outline>
    <contour>
      <point x="219.695" y="601.25" type="curve" smooth="yes"/>
      <point x="258.63" y="601.25"/>
      <point x="283.0975" y="644.4"/>
      <point x="294.47" y="727.25" type="curve"/>
      <point x="269.025" y="738.35" type="line"/>
      <point x="260.725" y="692.9"/>
      <point x="253.47" y="663.55"/>
      <point x="233.5925" y="663.55" type="curve" smooth="yes"/>
      <point x="201.9860839160825" y="663.55"/>
      <point x="177.18711956522" y="742.05"/>
      <point x="133.2325" y="742.05" type="curve" smooth="yes"/>
      <point x="91.8025" y="742.05"/>
      <point x="69.98" y="700.0"/>
      <point x="59.9075" y="615.15" type="curve"/>
      <point x="86.075" y="605.1" type="line"/>
      <point x="90.675" y="653.4"/>
      <point x="100.6075" y="680.8"/>
      <point x="118.635" y="680.8" type="curve" smooth="yes"/>
      <point x="146.9337591240825" y="680.8"/>
      <point x="171.2724295774575" y="601.25"/>
    </contour>
  </outline>
</glyph>
<glyph name="hungarumlaut" format="2">
  <advance width="351"/>
  <unicode hex="02DD"/>
  <anchor x="181.65" y="525.0" name="_top"/>
  <outline>
    <contour>
      <point x="114.5375" y="713.3" type="curve" smooth="yes"/>
      <point x="101.39999999999999" y="588.8" type="line"/>
      <point x="101.39999999999999" y="575.1" type="line"/>
      <point x="121.6225" y="575.1" type="line"/>
      <point x="166.17000000000002" y="665.1" type="line" smooth="yes"/>
      <point x="180.14499999999998" y="688.9"/>
      <point x="187.39" y="711.5"/>
      <point x="187.39" y="730.3" type="curve" smooth="yes"/>
      <point x="187.39" y="753.05"/>
      <point x="174.695" y="770.7"/>
      <point x="154.27" y="770.7" type="curve" smooth="yes"/>
      <point x="132.705" y="770.7"/>
      <point x="118.515" y="753.35"/>
    </contour>
    <contour>
      <point x="227.8425" y="713.3" type="curve" smooth="yes"/>
      <point x="214.5775" y="588.8" type="line"/>
      <point x="214.5775" y="575.1" type="line"/>
      <point x="234.9275" y="575.1" type="line"/>
      <point x="278.7525" y="665.1" type="line" smooth="yes"/>
      <point x="293.45" y="688.9"/>
      <point x="300.5675" y="711.5"/>
      <point x="300.5675" y="730.3" type="curve" smooth="yes"/>
      <point x="300.5675" y="753.05"/>
      <point x="288.0" y="770.7"/>
      <point x="266.8525" y="770.7" type="curve" smooth="yes"/>
      <point x="245.16" y="770.7"/>
      <point x="231.0975" y="753.35"/>
    </contour>
  </outline>
</glyph>
<glyph name="Delta" format="2">
  <advance width="505"/>
  <unicode hex="0394"/>
  <outline>
    <contour>
      <point x="23.6825" y="0.0" type="line"/>
      <point x="482.315" y="0.0" type="line"/>
      <point x="482.315" y="80.0" type="line"/>
      <point x="288.5925" y="710.0" type="line"/>
      <point x="216.6825" y="710.0" type="line"/>
      <point x="23.6825" y="80.0" type="line"/>
    </contour>
    <contour>
      <point x="409.3725" y="48.5" type="line"/>
      <point x="435.0775" y="85.9" type="line"/>
      <point x="47.44" y="85.9" type="line"/>
      <point x="47.665" y="49.0" type="line"/>
      <point x="246.215" y="698.5" type="line"/>
      <point x="215.2525" y="695.7" type="line"/>
    </contour>
  </outline>
</glyph>
<glyph name="minute" format="2">
  <advance width="170"/>
  <unicode hex="2032"/>
  <outline>
    <contour>
      <point x="141.115" y="710.0" type="line"/>
      <point x="133.3425" y="620.2"/>
      <point x="106.015" y="586.5"/>
      <point x="94.92" y="468.55" type="curve"/>
      <point x="64.0675" y="468.55" type="line"/>
      <point x="76.4175" y="607.3"/>
      <point x="59.4125" y="644.05"/>
      <point x="67.485" y="710.0" type="curve"/>
    </contour>
  </outline>
</glyph>
<glyph name="guilsinglleft" format="2">
  <advance width="400"/>
  <unicode hex="2039"/>
  <outline>
    <contour>
      <point x="179" y="213" type="line"/>
      <point x="277" y="456" type="line"/>
      <point x="250" y="456" type="line"/>
      <point x="125" y="285" type="line"/>
      <point x="125" y="245" type="line"/>
      <point x="250" y="75" type="line"/>
      <point x="277" y="75" type="line"/>
      <point x="179" y="313" type="line"/>
    </contour>
  </outline>
</glyph>
<glyph name="peseta" format="2">
  <advance width="393"/>
  <unicode hex="20A7"/>
  <outline>
    <contour>
      <point x="2.817500000000001" y="0.0" type="line"/>
      <point x="137.18" y="0.0" type="line"/>
      <point x="137.18" y="32.6" type="line"/>
      <point x="130.225" y="32.6" type="line" smooth="yes"/>
      <point x="117.7975" y="32.6"/>
      <point x="97.7375" y="35.6"/>
      <point x="97.7375" y="42.5" type="curve" smooth="yes"/>
      <point x="97.7375" y="255.0" type="line"/>
      <point x="108.19749999999999" y="255.0" type="line" smooth="yes"/>
      <point x="197.6575" y="255.0"/>
      <point x="244.7625" y="350.8"/>
      <point x="244.7625" y="486.0" type="curve" smooth="yes"/>
      <point x="244.7625" y="622.0"/>
      <point x="199.6125" y="710.0"/>
      <point x="109.88499999999999" y="710.0" type="curve" smooth="yes"/>
      <point x="2.817500000000001" y="710.0" type="line"/>
      <point x="2.817500000000001" y="677.4" type="line"/>
      <point x="5.772499999999999" y="677.4" type="line" smooth="yes"/>
      <point x="20.5325" y="677.4"/>
      <point x="29.615000000000002" y="670.55"/>
      <point x="29.615000000000002" y="642.05" type="curve" smooth="yes"/>
      <point x="29.615000000000002" y="67.95" type="line" smooth="yes"/>
      <point x="29.615000000000002" y="39.45"/>
      <point x="20.5325" y="32.6"/>
      <point x="5.772499999999999" y="32.6" type="curve" smooth="yes"/>
      <point x="2.817500000000001" y="32.6" type="line"/>
    </contour>
    <contour>
      <point x="112.1525" y="674.6" type="line" smooth="yes"/>
      <point x="158.3975" y="674.6"/>
      <point x="175.1125" y="604.0965625"/>
      <point x="175.1125" y="485.0" type="curve" smooth="yes"/>
      <point x="175.1125" y="367.7785"/>
      <point x="157.72" y="290.4"/>
      <point x="109.3475" y="290.4" type="curve" smooth="yes"/>
      <point x="97.7375" y="290.4" type="line"/>
      <point x="97.7375" y="674.6" type="line"/>
    </contour>
    <contour>
      <point x="217.835" y="482.25" type="line"/>
      <point x="388.59499999999997" y="482.25" type="line"/>
      <point x="388.59499999999997" y="517.5" type="line"/>
      <point x="310.7875" y="517.5" type="line"/>
      <point x="291.17" y="600.15" type="line"/>
      <point x="291.17" y="537.75"/>
      <point x="266.7775" y="510.6"/>
      <point x="226.7475" y="510.6" type="curve" smooth="yes"/>
      <point x="217.835" y="510.6" type="line"/>
    </contour>
    <contour>
      <point x="335.1375" y="107.85" type="curve" smooth="yes"/>
      <point x="335.1375" y="647.05" type="line"/>
      <point x="291.17" y="647.05" type="line"/>
      <point x="291.17" y="523.75" type="line"/>
      <point x="269.52" y="511.0" type="line"/>
      <point x="269.52" y="112.8" type="line" smooth="yes"/>
      <point x="269.52" y="19.1"/>
      <point x="303.015865384605" y="-11.0"/>
      <point x="353.7325" y="-11.0" type="curve" smooth="yes"/>
      <point x="367.945" y="-11.0"/>
      <point x="379.8225" y="-8.0"/>
      <point x="388.59499999999997" y="-3.95" type="curve"/>
      <point x="388.59499999999997" y="26.6" type="line"/>
      <point x="385.4675" y="25.6"/>
      <point x="378.995" y="22.65"/>
      <point x="369.085" y="22.65" type="curve" smooth="yes"/>
      <point x="346.0925" y="22.65"/>
      <point x="335.1375" y="41.2"/>
    </contour>
  </outline>
</glyph>
<glyph name="guarani" format="2">
  <advance width="393"/>
  <unicode hex="20B2"/>
  <outline>
    <contour>
      <point x="264.2625" y="353.5" type="line"/>
      <point x="264.2625" y="320.9" type="line"/>
      <point x="267.0675" y="320.9" type="line" smooth="yes"/>
      <point x="279.01" y="320.9"/>
      <point x="288.9975" y="313.9"/>
      <point x="288.9975" y="284.9" type="curve"/>
      <point x="356.325" y="285.1" type="line"/>
      <point x="356.325" y="313.9"/>
      <point x="370.03999999999996" y="320.9"/>
      <point x="387.9275" y="320.9" type="curve" smooth="yes"/>
      <point x="391.0775" y="320.9" type="line"/>
      <point x="391.0775" y="353.5" type="line"/>
    </contour>
    <contour>
      <point x="187.765" y="790.0" type="line"/>
      <point x="187.765" y="683.8" type="line"/>
      <point x="189.5725" y="673.55" type="line"/>
      <point x="189.5725" y="39.3" type="line"/>
      <point x="187.765" y="27.65" type="line"/>
      <point x="187.765" y="-120.0" type="line"/>
      <point x="221.2225" y="-120.0" type="line"/>
      <point x="221.2225" y="26.65" type="line"/>
      <point x="219.415" y="37.5" type="line"/>
      <point x="219.415" y="675.75" type="line"/>
      <point x="221.2225" y="682.3" type="line"/>
      <point x="221.2225" y="790.0" type="line"/>
    </contour>
    <contour>
      <point x="213.3625" y="9.0" type="curve"/>
      <point x="275.67" y="9.0"/>
      <point x="332.35249999999996" y="52.95"/>
      <point x="356.325" y="97.75" type="curve"/>
      <point x="356.325" y="330.9" type="line"/>
      <point x="288.9975" y="330.65" type="line"/>
      <point x="288.9975" y="77.4" type="line"/>
      <point x="277.5925" y="62.550000000000004"/>
      <point x="253.2325" y="42.0"/>
      <point x="214.63" y="42.0" type="curve"/>
      <point x="134.2675" y="42.0"/>
      <point x="93.365" y="160.64786585365854"/>
      <point x="93.365" y="355.0" type="curve" smooth="yes"/>
      <point x="93.365" y="543.7326219512195"/>
      <point x="120.99" y="668.0"/>
      <point x="223.585" y="668.0" type="curve"/>
      <point x="265.2725" y="668.0"/>
      <point x="300.3925" y="643.4"/>
      <point x="320.925" y="586.15" type="curve"/>
      <point x="328.945" y="614.5"/>
      <point x="311.2825" y="645.4"/>
      <point x="288.31" y="654.55" type="curve"/>
      <point x="288.31" y="540.6" type="line"/>
      <point x="359.475" y="540.6" type="line"/>
      <point x="359.475" y="639.5" type="line"/>
      <point x="334.6325" y="671.55"/>
      <point x="282.355" y="701.0"/>
      <point x="220.1675" y="701.0" type="curve"/>
      <point x="88.9125" y="701.0"/>
      <point x="12.932500000000001" y="557.6"/>
      <point x="12.932500000000001" y="355.0" type="curve" smooth="yes"/>
      <point x="12.932500000000001" y="148.25"/>
      <point x="90.11749999999999" y="9.0"/>
    </contour>
  </outline>
</glyph>
<glyph name="litre" format="2">
  <advance width="372"/>
  <unicode hex="2113"/>
  <outline>
    <contour>
      <point x="174.18" y="239.05" type="curve" smooth="yes"/>
      <point x="174.18" y="579.5353758949881"/>
      <point x="203.80233490566036" y="684.85"/>
      <point x="243.6775" y="684.85" type="curve" smooth="yes"/>
      <point x="270.0625" y="684.85"/>
      <point x="278.13" y="646.05"/>
      <point x="278.13" y="575.15" type="curve" smooth="yes"/>
      <point x="278.13" y="391.85"/>
      <point x="191.26933197124913" y="295.9523439923246"/>
      <point x="29.380000000000003" y="228.8" type="curve"/>
      <point x="36.2475" y="198.7" type="line"/>
      <point x="206.83918736148556" y="269.5473450615795"/>
      <point x="336.385" y="406.45"/>
      <point x="336.385" y="574.95" type="curve" smooth="yes"/>
      <point x="336.385" y="654.65"/>
      <point x="307.8225" y="719.5"/>
      <point x="246.71" y="719.5" type="curve" smooth="yes"/>
      <point x="159.5239222614775" y="719.5"/>
      <point x="101.9175" y="583.1850211864406"/>
      <point x="101.9175" y="239.25" type="curve" smooth="yes"/>
      <point x="101.9175" y="53.0"/>
      <point x="146.1395851063825" y="-10.0"/>
      <point x="219.9525" y="-10.0" type="curve" smooth="yes"/>
      <point x="280.755" y="-10.0"/>
      <point x="316.745" y="59.4"/>
      <point x="333.89" y="132.4" type="curve"/>
      <point x="309.7025" y="145.6" type="line"/>
      <point x="292.525" y="74.05"/>
      <point x="266.37" y="25.15"/>
      <point x="227.65" y="25.15" type="curve" smooth="yes"/>
      <point x="192.597966101685" y="25.15"/>
      <point x="174.18" y="58.998230769230766"/>
    </contour>
  </outline>
</glyph>
<glyph name="minus" format="2">
  <advance width="393"/>
  <unicode hex="2212"/>
  <outline>
    <contour>
      <point x="344.3075" y="357.45" type="line"/>
      <point x="49.0925" y="357.45" type="line"/>
      <point x="49.0925" y="324.55" type="line"/>
      <point x="344.3075" y="324.55" type="line"/>
    </contour>
  </outline>
</glyph>
<glyph name="approxequal" format="2">
  <advance width="393"/>
  <unicode hex="2248"/>
  <outline>
    <contour>
      <point x="259.0275" y="328.25" type="curve" smooth="yes"/>
      <point x="311.885" y="328.25"/>
      <point x="336.4475" y="386.35"/>
      <point x="348.65999999999997" y="448.15" type="curve"/>
      <point x="318.88" y="460.05" type="line"/>
      <point x="311.4525" y="421.3"/>
      <point x="298.07" y="368.85"/>
      <point x="264.4875" y="368.85" type="curve" smooth="yes"/>
      <point x="216.89" y="368.85"/>
      <point x="193.895" y="460.05"/>
      <point x="131.4175" y="460.05" type="curve" smooth="yes"/>
      <point x="78.42" y="460.05"/>
      <point x="52.9525" y="404.35"/>
      <point x="44.7625" y="337.55" type="curve"/>
      <point x="73.97" y="325.65" type="line"/>
      <point x="79.1425" y="368.0"/>
      <point x="90.375" y="419.45"/>
      <point x="127.4175" y="419.45" type="curve" smooth="yes"/>
      <point x="170.7825" y="419.45"/>
      <point x="200.8825" y="328.25"/>
    </contour>
    <contour>
      <point x="259.0275" y="119.15" type="curve" smooth="yes"/>
      <point x="311.885" y="119.15"/>
      <point x="336.4475" y="177.3"/>
      <point x="348.65999999999997" y="239.05" type="curve"/>
      <point x="318.88" y="250.95" type="line"/>
      <point x="311.4525" y="212.2"/>
      <point x="298.07" y="159.75"/>
      <point x="264.4875" y="159.75" type="curve" smooth="yes"/>
      <point x="216.89" y="159.75"/>
      <point x="193.895" y="250.95"/>
      <point x="131.4175" y="250.95" type="curve" smooth="yes"/>
      <point x="78.42" y="250.95"/>
      <point x="52.9525" y="195.25"/>
      <point x="44.7625" y="128.5" type="curve"/>
      <point x="73.97" y="116.55" type="line"/>
      <point x="79.1425" y="158.95"/>
      <point x="90.375" y="210.4"/>
      <point x="127.4175" y="210.4" type="curve" smooth="yes"/>
      <point x="170.7825" y="210.4"/>
      <point x="200.8825" y="119.15"/>
    </contour>
  </outline>
</glyph>
<glyph name="notequal" format="2">
  <advance width="393"/>
  <unicode hex="2260"/>
  <outline>
    <contour>
      <point x="295.705" y="570.25" type="line"/>
      <point x="49.629999999999995" y="84.3" type="line"/>
      <point x="84.36749999999999" y="84.3" type="line"/>
      <point x="329.72" y="570.25" type="line"/>
    </contour>
    <component base="equal" xOffset="-75.11" yOffset="1"/>
  </outline>
</glyph>
<glyph name="uni25B9" format="2">
  <advance width="402"/>
  <unicode hex="25B9"/>
  <outline>
    <contour>
      <point x="90.9" y="545.0" type="line"/>
      <point x="90.9" y="10.0" type="line"/>
      <point x="353.4" y="277.0" type="line"/>
    </contour>
    <contour>
      <point x="119.0" y="474.0" type="line"/>
      <point x="115.7" y="470.0" type="line"/>
      <point x="310.1" y="274.0" type="line"/>
      <point x="310.1" y="281.0" type="line"/>
      <point x="115.7" y="84.0" type="line"/>
      <point x="119.0" y="80.0" type="line"/>
    </contour>
  </outline>
</glyph>
<glyph name="uni25BF" format="2">
  <advance width="439"/>
  <unicode hex="25BF"/>
  <outline>
    <contour>
      <point x="407.45" y="464.0" type="line"/>
      <point x="31.4" y="464.0" type="line"/>
      <point x="219.35" y="91.0" type="line"/>
    </contour>
    <contour>
      <point x="357.7" y="426.0" type="line"/>
      <point x="354.55" y="431.0" type="line"/>
      <point x="217.2" y="155.0" type="line"/>
      <point x="221.65" y="155.0" type="line"/>
      <point x="83.3" y="431.0" type="line"/>
      <point x="81.0" y="426.0" type="line"/>
    </contour>
  </outline>
</glyph>
<glyph name="uni25C3" format="2">
  <advance width="537"/>
  <unicode hex="25C3"/>
  <outline>
    <contour>
      <point x="495.05" y="-40.0" type="line"/>
      <point x="495.05" y="754.0" type="line"/>
      <point x="14.05" y="357.0" type="line"/>
    </contour>
    <contour>
      <point x="466.95" y="24.0" type="line"/>
      <point x="476.55" y="24.0" type="line"/>
      <point x="57.35" y="368.0" type="line"/>
      <point x="57.35" y="346.0" type="line"/>
      <point x="473.4" y="688.0" type="line"/>
      <point x="466.95" y="690.0" type="line"/>
    </contour>
  </outline>
</glyph>
<glyph name="Euro.proportional" format="2">
  <advance width="400"/>
  <outline>
    <contour>
      <point x="-27" y="441" type="line"/>
      <point x="-27" y="406" type="line"/>
      <point x="266" y="406" type="line"/>
      <point x="266" y="441" type="line"/>
    </contour>
    <contour>
      <point x="-27" y="285" type="line"/>
      <point x="-27" y="250" type="line"/>
      <point x="233" y="250" type="line"/>
      <point x="233" y="285" type="line"/>
    </contour>
    <contour>
      <point x="108" y="355" type="curve"/>
      <point x="108" y="596"/>
      <point x="170" y="687"/>
      <point x="256" y="687" type="curve" smooth="yes"/>
      <point x="310" y="687"/>
      <point x="343" y="656"/>
      <point x="361" y="618" type="curve"/>
      <point x="371" y="636"/>
      <point x="351" y="666"/>
      <point x="326" y="675" type="curve"/>
      <point x="326" y="526" type="line"/>
      <point x="399" y="526" type="line"/>
      <point x="399" y="663" type="line"/>
      <point x="379" y="686"/>
      <point x="332" y="720"/>
      <point x="255" y="720" type="curve" smooth="yes"/>
      <point x="129" y="720"/>
      <point x="25" y="603"/>
      <point x="25" y="355" type="curve"/>
      <point x="25" y="114"/>
      <point x="119" y="-10"/>
      <point x="230" y="-10" type="curve" smooth="yes"/>
      <point x="339" y="-10"/>
      <point x="393" y="82"/>
      <point x="416" y="223" type="curve"/>
      <point x="390" y="238" type="line"/>
      <point x="371" y="111"/>
      <point x="327" y="25"/>
      <point x="244" y="25" type="curve" smooth="yes"/>
      <point x="168" y="25"/>
      <point x="108" y="128"/>
    </contour>
  </outline>
</glyph>
<glyph name="baht" format="2">
  <advance width="393"/>
  <outline>
    <contour>
      <point x="182.7475" y="790.0" type="line"/>
      <point x="182.7475" y="685.5" type="line"/>
      <point x="185.155" y="669.5" type="line"/>
      <point x="185.155" y="37.45" type="line"/>
      <point x="182.7475" y="27.45" type="line"/>
      <point x="182.7475" y="-110.0" type="line"/>
      <point x="215.61" y="-110.0" type="line"/>
      <point x="215.61" y="28.5" type="line"/>
      <point x="213.18" y="40.5" type="line"/>
      <point x="213.18" y="671.5" type="line"/>
      <point x="215.61" y="682.5" type="line"/>
      <point x="215.61" y="790.0" type="line"/>
    </contour>
    <contour>
      <point x="200.0675" y="700.5" type="curve"/>
      <point x="1.8399999999999999" y="700.5" type="line"/>
      <point x="1.8399999999999999" y="667.9" type="line"/>
      <point x="9.417499999999999" y="667.9" type="line" smooth="yes"/>
      <point x="31.25678571428475" y="667.9"/>
      <point x="47.9975" y="660.9"/>
      <point x="47.9975" y="631.9" type="curve" smooth="yes"/>
      <point x="47.9975" y="78.1" type="line" smooth="yes"/>
      <point x="47.9975" y="49.1"/>
      <point x="31.25678571428475" y="42.1"/>
      <point x="9.417499999999999" y="42.1" type="curve" smooth="yes"/>
      <point x="1.8399999999999999" y="42.1" type="line"/>
      <point x="1.8399999999999999" y="9.5" type="line"/>
      <point x="203.355" y="9.5" type="line" smooth="yes"/>
      <point x="321.4280357142825" y="9.5"/>
      <point x="383.28499999999997" y="86.4"/>
      <point x="383.28499999999997" y="210.45" type="curve" smooth="yes"/>
      <point x="383.28499999999997" y="318.0"/>
      <point x="320.9507754628575" y="385.29941608984"/>
      <point x="206.2375" y="385.65" type="curve"/>
      <point x="203.5275" y="363.5" type="line"/>
      <point x="309.65999999999997" y="363.8"/>
      <point x="365.42" y="429.8"/>
      <point x="365.42" y="530.55" type="curve" smooth="yes"/>
      <point x="365.42" y="635.55"/>
      <point x="308.96" y="700.5"/>
    </contour>
    <contour>
      <point x="208.4375" y="389.25" type="curve"/>
      <point x="117.5725" y="389.25" type="line"/>
      <point x="117.5725" y="659.1" type="line"/>
      <point x="198.28" y="659.1" type="line"/>
      <point x="268.7025" y="659.1"/>
      <point x="294.995" y="613.65"/>
      <point x="294.995" y="525.0" type="curve" smooth="yes"/>
      <point x="294.995" y="451.85"/>
      <point x="273.9575" y="389.25"/>
    </contour>
    <contour>
      <point x="213.64249999999998" y="354.55" type="line"/>
      <point x="286.095" y="354.55"/>
      <point x="311.3875" y="291.7"/>
      <point x="311.3875" y="212.9" type="curve" smooth="yes"/>
      <point x="311.3875" y="107.85"/>
      <point x="278.795" y="49.95"/>
      <point x="200.79500000000002" y="49.95" type="curve" smooth="yes"/>
      <point x="117.5725" y="49.95" type="line"/>
      <point x="117.5725" y="354.55" type="line"/>
    </contour>
  </outline>
</glyph>
<glyph name="bracketleft.uc" format="2">
  <advance width="226"/>
  <outline>
    <contour>
      <point x="46.375" y="768.5" type="line"/>
      <point x="46.375" y="-63.45" type="line"/>
      <point x="113.50750000000001" y="-63.45" type="line"/>
      <point x="113.50750000000001" y="768.5" type="line"/>
    </contour>
    <contour>
      <point x="211.16" y="768.5" type="line"/>
      <point x="73.7525" y="768.5" type="line"/>
      <point x="73.7525" y="735.0" type="line"/>
      <point x="211.16" y="735.0" type="line"/>
    </contour>
    <contour>
      <point x="211.16" y="-29.95" type="line"/>
      <point x="73.7525" y="-29.95" type="line"/>
      <point x="73.7525" y="-63.45" type="line"/>
      <point x="211.16" y="-63.45" type="line"/>
    </contour>
  </outline>
</glyph>
<glyph name="cedi.proportional" format="2">
  <advance width="492"/>
  <outline>
    <contour>
      <point x="280.3125" y="701.0" type="curve" smooth="yes"/>
      <point x="131.8775" y="701.0"/>
      <point x="36.42" y="557.9"/>
      <point x="36.42" y="355.0" type="curve" smooth="yes"/>
      <point x="36.42" y="149.35"/>
      <point x="134.36" y="9.0"/>
      <point x="270.0575" y="9.0" type="curve" smooth="yes"/>
      <point x="374.5775" y="9.0"/>
      <point x="441.905" y="101.4"/>
      <point x="464.21" y="229.4" type="curve"/>
      <point x="437.755" y="244.4" type="line"/>
      <point x="416.5225" y="126.7"/>
      <point x="361.9575" y="44.15"/>
      <point x="275.77750000000003" y="44.15" type="curve" smooth="yes"/>
      <point x="179.3625" y="44.15"/>
      <point x="119.745" y="166.8"/>
      <point x="119.745" y="355.0" type="curve" smooth="yes"/>
      <point x="119.745" y="543.65"/>
      <point x="175.39499999999998" y="667.75"/>
      <point x="282.075" y="667.75" type="curve" smooth="yes"/>
      <point x="350.24" y="667.75"/>
      <point x="391.1325" y="622.25"/>
      <point x="408.665" y="569.55" type="curve"/>
      <point x="420.405" y="597.95"/>
      <point x="397.0" y="632.6"/>
      <point x="375.7925" y="638.8" type="curve"/>
      <point x="375.7925" y="490.3" type="line"/>
      <point x="451.655" y="490.3" type="line"/>
      <point x="451.655" y="618.25" type="line"/>
      <point x="428.6175" y="649.45"/>
      <point x="371.09499999999997" y="701.0"/>
    </contour>
    <contour>
      <point x="251.2225" y="790.0" type="line"/>
      <point x="251.2225" y="684.75" type="line"/>
      <point x="252.535" y="675.25" type="line"/>
      <point x="252.535" y="30.75" type="line"/>
      <point x="251.2225" y="21.95" type="line"/>
      <point x="251.2225" y="-120.0" type="line"/>
      <point x="282.9675" y="-120.0" type="line"/>
      <point x="282.9675" y="20.950000000000003" type="line"/>
      <point x="281.5275" y="29.9" type="line"/>
      <point x="281.5275" y="678.4" type="line"/>
      <point x="282.9675" y="687.05" type="line"/>
      <point x="282.9675" y="790.0" type="line"/>
    </contour>
  </outline>
</glyph>
<glyph name="cent.proportional" format="2">
  <advance width="419"/>
  <outline>
    <contour>
      <point x="243.72" y="22.95" type="curve" smooth="yes"/>
      <point x="162.8625" y="22.95"/>
      <point x="121.475" y="117.0006140350875"/>
      <point x="121.475" y="258.8" type="curve" smooth="yes"/>
      <point x="121.475" y="398.1989285714275"/>
      <point x="158.3875" y="492.9"/>
      <point x="243.485" y="492.9" type="curve" smooth="yes"/>
      <point x="292.3725" y="492.9"/>
      <point x="328.3525" y="460.7"/>
      <point x="343.1125" y="425.8" type="curve"/>
      <point x="352.44553818354" y="447.651331663055"/>
      <point x="337.4482563040325" y="482.4012613599375"/>
      <point x="316.9475" y="482.9" type="curve"/>
      <point x="316.9475" y="370.6" type="line"/>
      <point x="377.265" y="370.6" type="line"/>
      <point x="377.265" y="470.4" type="line"/>
      <point x="353.605" y="498.05"/>
      <point x="305.8775" y="527.8"/>
      <point x="241.85" y="527.8" type="curve" smooth="yes"/>
      <point x="123.1925" y="527.8"/>
      <point x="43.685" y="416.5"/>
      <point x="43.685" y="258.8" type="curve" smooth="yes"/>
      <point x="43.685" y="99.1"/>
      <point x="125.515" y="-12.1"/>
      <point x="236.045" y="-12.1" type="curve" smooth="yes"/>
      <point x="305.21" y="-12.1"/>
      <point x="355.615" y="30.900000000000002"/>
      <point x="383.1875" y="104.75" type="curve"/>
      <point x="358.8275" y="127.1" type="line"/>
      <point x="336.997110163895" y="67.7014067759375"/>
      <point x="300.4575" y="22.95"/>
    </contour>
    <contour>
      <point x="220.0475" y="623.0" type="line"/>
      <point x="220.0475" y="513.6" type="line"/>
      <point x="222.3275" y="501.4" type="line"/>
      <point x="222.3275" y="7.7" type="line"/>
      <point x="220.0475" y="1.1500000000000004" type="line"/>
      <point x="220.0475" y="-126.0" type="line"/>
      <point x="252.7825" y="-126.0" type="line"/>
      <point x="252.7825" y="-0.3999999999999999" type="line"/>
      <point x="250.5025" y="3.200000000000001" type="line"/>
      <point x="250.5025" y="503.7" type="line"/>
      <point x="252.7825" y="513.05" type="line"/>
      <point x="252.7825" y="623.0" type="line"/>
    </contour>
  </outline>
</glyph>
<glyph name="dollar.alt" format="2">
  <advance width="400"/>
  <outline>
    <contour>
      <point x="187" y="790" type="line"/>
      <point x="187" y="685" type="line"/>
      <point x="219" y="682" type="line"/>
      <point x="219" y="790" type="line"/>
    </contour>
    <contour>
      <point x="187" y="28" type="line"/>
      <point x="187" y="-120" type="line"/>
      <point x="219" y="-120" type="line"/>
      <point x="219" y="24" type="line"/>
    </contour>
    <contour>
      <point x="205" y="51" type="curve" smooth="yes"/>
      <point x="148" y="51"/>
      <point x="103" y="71"/>
      <point x="74" y="139" type="curve"/>
      <point x="56" y="110"/>
      <point x="82" y="76"/>
      <point x="103" y="74" type="curve"/>
      <point x="103" y="199" type="line"/>
      <point x="32" y="199" type="line"/>
      <point x="32" y="95" type="line"/>
      <point x="67" y="49"/>
      <point x="127" y="12"/>
      <point x="208" y="12" type="curve" smooth="yes"/>
      <point x="299" y="12"/>
      <point x="373" y="79"/>
      <point x="373" y="208" type="curve" smooth="yes"/>
      <point x="373" y="337"/>
      <point x="302" y="379"/>
      <point x="228" y="408" type="curve" smooth="yes"/>
      <point x="165" y="435"/>
      <point x="111" y="457"/>
      <point x="111" y="549" type="curve" smooth="yes"/>
      <point x="111" y="615"/>
      <point x="143" y="659"/>
      <point x="207" y="659" type="curve" smooth="yes"/>
      <point x="257" y="659"/>
      <point x="289" y="633"/>
      <point x="308" y="593" type="curve"/>
      <point x="331" y="574"/>
      <point x="310" y="640"/>
      <point x="284" y="649" type="curve"/>
      <point x="284" y="536" type="line"/>
      <point x="353" y="536" type="line"/>
      <point x="353" y="637" type="line"/>
      <point x="339" y="654"/>
      <point x="285" y="698"/>
      <point x="207" y="698" type="curve" smooth="yes"/>
      <point x="111" y="698"/>
      <point x="47" y="629"/>
      <point x="47" y="525" type="curve" smooth="yes"/>
      <point x="47" y="401"/>
      <point x="113" y="359"/>
      <point x="182" y="328" type="curve" smooth="yes"/>
      <point x="246" y="299"/>
      <point x="308" y="277"/>
      <point x="308" y="180" type="curve" smooth="yes"/>
      <point x="308" y="85"/>
      <point x="267" y="51"/>
    </contour>
  </outline>
</glyph>
<glyph name="florin.proportional" format="2">
  <advance width="386"/>
  <outline>
    <contour>
      <point x="93.3075" y="498.5" type="line"/>
      <point x="89.8125" y="463.35" type="line"/>
      <point x="346.015" y="463.35" type="line"/>
      <point x="348.7875" y="498.5" type="line"/>
    </contour>
    <contour>
      <point x="190.3475" y="70.65" type="curve" smooth="yes"/>
      <point x="239.925" y="580.7" type="line" smooth="yes"/>
      <point x="250.03" y="695.8"/>
      <point x="274.5075" y="729.9"/>
      <point x="320.01" y="729.9" type="curve" smooth="yes"/>
      <point x="344.315" y="729.9"/>
      <point x="365.5475" y="720.05"/>
      <point x="383.9075" y="708.35" type="curve"/>
      <point x="386.53" y="746.6" type="line"/>
      <point x="368.2025" y="758.6"/>
      <point x="342.08" y="765.7"/>
      <point x="312.7" y="765.7" type="curve" smooth="yes"/>
      <point x="229.625" y="765.7"/>
      <point x="177.585" y="708.35"/>
      <point x="164.64000000000001" y="585.65" type="curve" smooth="yes"/>
      <point x="114.235" y="56.65" type="line" smooth="yes"/>
      <point x="94.9075" y="-145.15"/>
      <point x="69.13" y="-200.3"/>
      <point x="22.755" y="-200.3" type="curve" smooth="yes"/>
      <point x="-3.3550000000000004" y="-200.3"/>
      <point x="-21.555000000000003" y="-185.4"/>
      <point x="-27.6275" y="-182.3" type="curve"/>
      <point x="-29.950000000000003" y="-220.7" type="line"/>
      <point x="-17.2225" y="-228.8"/>
      <point x="1.567499999999999" y="-236.0"/>
      <point x="27.357499999999998" y="-236.0" type="curve" smooth="yes"/>
      <point x="114.56" y="-236.0"/>
      <point x="170.0525" y="-136.1"/>
    </contour>
  </outline>
</glyph>
<glyph name="four.oldtab" format="2">
  <advance width="400"/>
  <guideline x="38" y="135" angle="64.198847283852" identifier="Rpbw1M3ANY"/>
  <outline>
    <contour>
      <point x="24" y="116" type="line"/>
      <point x="385" y="116" type="line"/>
      <point x="385" y="171" type="line"/>
      <point x="47" y="171" type="line"/>
      <point x="45" y="135" type="line"/>
      <point x="258" y="596" type="line"/>
      <point x="263" y="609" type="line"/>
      <point x="233" y="609" type="line"/>
      <point x="24" y="156" type="line"/>
    </contour>
    <contour>
      <point x="307" y="-77" type="line"/>
      <point x="307" y="609" type="line"/>
      <point x="247" y="609" type="line"/>
      <point x="227" y="573" type="line"/>
      <point x="227" y="-77" type="line"/>
    </contour>
  </outline>
</glyph>
<glyph name="lira.proportional" format="2">
  <advance width="415"/>
  <outline>
    <contour>
      <point x="17.5325" y="424.0" type="line"/>
      <point x="17.5325" y="389.35" type="line"/>
      <point x="292.29" y="389.35" type="line"/>
      <point x="292.29" y="424.0" type="line"/>
    </contour>
    <contour>
      <point x="17.5325" y="-12.85" type="line"/>
      <point x="131.4875566226975" y="17.7005041791465"/>
      <point x="183.965" y="109.65"/>
      <point x="183.965" y="230.8" type="curve" smooth="yes"/>
      <point x="183.965" y="355.6"/>
      <point x="141.245" y="421.4"/>
      <point x="141.245" y="536.45" type="curve" smooth="yes"/>
      <point x="141.245" y="636.85"/>
      <point x="181.0075" y="686.75"/>
      <point x="239.6025" y="686.75" type="curve" smooth="yes"/>
      <point x="284.365" y="686.75"/>
      <point x="313.1175" y="661.6"/>
      <point x="330.8775" y="631.95" type="curve"/>
      <point x="333.1025" y="652.25"/>
      <point x="323.8375" y="677.55"/>
      <point x="303.5525" y="679.45" type="curve"/>
      <point x="303.5525" y="570.15" type="line"/>
      <point x="374.255" y="570.15" type="line"/>
      <point x="374.255" y="663.15" type="line"/>
      <point x="352.2925" y="689.3"/>
      <point x="303.2975" y="720.0"/>
      <point x="235.99" y="720.0" type="curve" smooth="yes"/>
      <point x="130.9975" y="720.0"/>
      <point x="59.2425" y="638.65"/>
      <point x="59.2425" y="520.45" type="curve" smooth="yes"/>
      <point x="59.2425" y="399.05"/>
      <point x="123.665" y="340.0"/>
      <point x="123.665" y="208.35" type="curve" smooth="yes"/>
      <point x="123.665" y="109.15"/>
      <point x="100.7178892108575" y="59.7007694605425"/>
      <point x="17.5325" y="26.65" type="curve"/>
    </contour>
    <contour>
      <point x="287.9125" y="-10.0" type="curve" smooth="yes"/>
      <point x="350.1975" y="-10.0"/>
      <point x="386.8875" y="75.8"/>
      <point x="399.7775" y="177.95" type="curve"/>
      <point x="371.92" y="189.14999999999998" type="line"/>
      <point x="358.72" y="107.3"/>
      <point x="333.705" y="82.65"/>
      <point x="291.04" y="82.65" type="curve" smooth="yes"/>
      <point x="246.88" y="82.65"/>
      <point x="209.665" y="102.0"/>
      <point x="159.55" y="165.6" type="curve"/>
      <point x="151.025" y="160.35"/>
      <point x="142.155" y="148.5"/>
      <point x="141.4775" y="139.7" type="curve"/>
      <point x="212.9325" y="51.55"/>
      <point x="229.9075" y="-10.0"/>
    </contour>
    <contour>
      <point x="17.5325" y="291.25" type="line"/>
      <point x="17.5325" y="256.6" type="line"/>
      <point x="292.29" y="256.6" type="line"/>
      <point x="292.29" y="291.25" type="line"/>
    </contour>
  </outline>
</glyph>
<glyph name="liraTurkish.proportional" format="2">
  <advance width="433"/>
  <outline>
    <contour>
      <point x="29.1325" y="402.75" type="line"/>
      <point x="29.1325" y="367.75" type="line"/>
      <point x="297.6525" y="539.0" type="line"/>
      <point x="297.6525" y="574.0" type="line"/>
    </contour>
    <contour>
      <point x="29.1325" y="238.5" type="line"/>
      <point x="29.1325" y="203.5" type="line"/>
      <point x="297.6525" y="374.75" type="line"/>
      <point x="297.6525" y="409.75" type="line"/>
    </contour>
    <contour>
      <point x="221.2425" y="36.0" type="curve" smooth="yes"/>
      <point x="170.225" y="36.0" type="line"/>
      <point x="170.225" y="641.4" type="line" smooth="yes"/>
      <point x="170.225" y="670.4"/>
      <point x="195.2175" y="677.4"/>
      <point x="222.855" y="677.4" type="curve" smooth="yes"/>
      <point x="228.2725" y="677.4" type="line"/>
      <point x="228.2725" y="710.0" type="line"/>
      <point x="33.765" y="710.0" type="line"/>
      <point x="33.765" y="677.4" type="line"/>
      <point x="38.5375" y="677.4" type="line" smooth="yes"/>
      <point x="66.0025" y="677.4"/>
      <point x="90.845" y="670.4"/>
      <point x="90.845" y="641.4" type="curve" smooth="yes"/>
      <point x="90.845" y="68.6" type="line" smooth="yes"/>
      <point x="90.845" y="39.6"/>
      <point x="66.85249999999999" y="32.6"/>
      <point x="38.5375" y="32.6" type="curve" smooth="yes"/>
      <point x="33.765" y="32.6" type="line"/>
      <point x="33.765" y="0.0" type="line"/>
      <point x="208.7075" y="0.0" type="line" smooth="yes"/>
      <point x="337.825" y="0.0"/>
      <point x="404.1625" y="96.8"/>
      <point x="411.4075" y="275.85" type="curve"/>
      <point x="352.3775" y="299.6" type="line"/>
      <point x="349.4325" y="130.75"/>
      <point x="306.52" y="36.0"/>
    </contour>
  </outline>
</glyph>
<glyph name="naira.proportional" format="2">
  <advance width="400"/>
  <outline>
    <contour>
      <point x="56" y="691" type="line"/>
      <point x="302" y="0" type="line"/>
      <point x="374" y="0" type="line"/>
      <point x="374" y="615" type="line" smooth="yes"/>
      <point x="374" y="660"/>
      <point x="399" y="677"/>
      <point x="424" y="677" type="curve" smooth="yes"/>
      <point x="431" y="677" type="line"/>
      <point x="431" y="710" type="line"/>
      <point x="273" y="710" type="line"/>
      <point x="273" y="677" type="line"/>
      <point x="289" y="677" type="line" smooth="yes"/>
      <point x="318" y="677"/>
      <point x="339" y="671"/>
      <point x="339" y="644" type="curve" smooth="yes"/>
      <point x="339" y="86" type="line"/>
      <point x="352" y="90" type="line"/>
      <point x="135" y="710" type="line"/>
      <point x="-24" y="710" type="line"/>
      <point x="-24" y="677" type="line"/>
      <point x="-16" y="677" type="line" smooth="yes"/>
      <point x="7" y="677"/>
      <point x="33" y="670"/>
      <point x="33" y="641" type="curve" smooth="yes"/>
      <point x="33" y="95" type="line" smooth="yes"/>
      <point x="33" y="50"/>
      <point x="9" y="33"/>
      <point x="-16" y="33" type="curve" smooth="yes"/>
      <point x="-24" y="33" type="line"/>
      <point x="-24" y="0" type="line"/>
      <point x="135" y="0" type="line"/>
      <point x="135" y="33" type="line"/>
      <point x="119" y="33" type="line" smooth="yes"/>
      <point x="90" y="33"/>
      <point x="69" y="39"/>
      <point x="69" y="66" type="curve" smooth="yes"/>
      <point x="69" y="695" type="line"/>
    </contour>
    <contour>
      <point x="49" y="450" type="line"/>
      <point x="-24" y="450" type="line"/>
      <point x="-24" y="416" type="line"/>
      <point x="48" y="416" type="line"/>
    </contour>
    <contour>
      <point x="356" y="256" type="line"/>
      <point x="431" y="256" type="line"/>
      <point x="431" y="291" type="line"/>
      <point x="357" y="291" type="line"/>
    </contour>
    <contour>
      <point x="200" y="416" type="line"/>
      <point x="347" y="416" type="line"/>
      <point x="360" y="416" type="line"/>
      <point x="431" y="416" type="line"/>
      <point x="431" y="450" type="line"/>
      <point x="199" y="450" type="line"/>
    </contour>
    <contour>
      <point x="252" y="256" type="line"/>
      <point x="236" y="291" type="line"/>
      <point x="54" y="291" type="line"/>
      <point x="41" y="291" type="line"/>
      <point x="-24" y="291" type="line"/>
      <point x="-24" y="256" type="line"/>
    </contour>
  </outline>
</glyph>
<glyph name="nine.lintab" format="2">
  <advance width="400"/>
  <outline>
    <contour>
      <point x="73" y="-8" type="line"/>
      <point x="203" y="46"/>
      <point x="288" y="198"/>
      <point x="288" y="431" type="curve" smooth="yes"/>
      <point x="288" y="606"/>
      <point x="252" y="690"/>
      <point x="191" y="690" type="curve" smooth="yes"/>
      <point x="132" y="690"/>
      <point x="106" y="613"/>
      <point x="106" y="490" type="curve" smooth="yes"/>
      <point x="106" y="374"/>
      <point x="129" y="313"/>
      <point x="190" y="313" type="curve" smooth="yes"/>
      <point x="232" y="313"/>
      <point x="271" y="343"/>
      <point x="293" y="437" type="curve"/>
      <point x="292" y="427"/>
      <point x="300" y="417"/>
      <point x="302" y="411" type="curve"/>
      <point x="284" y="324"/>
      <point x="239" y="279"/>
      <point x="172" y="279" type="curve" smooth="yes"/>
      <point x="81" y="279"/>
      <point x="26" y="364"/>
      <point x="26" y="489" type="curve" smooth="yes"/>
      <point x="26" y="625"/>
      <point x="92" y="720"/>
      <point x="191" y="720" type="curve" smooth="yes"/>
      <point x="292" y="720"/>
      <point x="368" y="615"/>
      <point x="368" y="423" type="curve" smooth="yes"/>
      <point x="368" y="190"/>
      <point x="252" y="28"/>
      <point x="80" y="-30" type="curve"/>
    </contour>
  </outline>
</glyph>
<glyph name="nine.oldtab" format="2">
  <advance width="400"/>
  <outline>
    <contour>
      <point x="75" y="-71" type="line"/>
      <point x="205" y="-17"/>
      <point x="292" y="137"/>
      <point x="292" y="375" type="curve" smooth="yes"/>
      <point x="292" y="540"/>
      <point x="252" y="589"/>
      <point x="201.0" y="589.0" type="curve" smooth="yes"/>
      <point x="140" y="589"/>
      <point x="102" y="517"/>
      <point x="102" y="388" type="curve" smooth="yes"/>
      <point x="102" y="280"/>
      <point x="128" y="212"/>
      <point x="191" y="212" type="curve" smooth="yes"/>
      <point x="234" y="212"/>
      <point x="276" y="244"/>
      <point x="296" y="344" type="curve"/>
      <point x="295" y="334"/>
      <point x="304" y="323"/>
      <point x="306" y="317" type="curve"/>
      <point x="289" y="222"/>
      <point x="240" y="178"/>
      <point x="173" y="178.0" type="curve" smooth="yes"/>
      <point x="84" y="178"/>
      <point x="22" y="255"/>
      <point x="22" y="383" type="curve" smooth="yes"/>
      <point x="22" y="525"/>
      <point x="100" y="619"/>
      <point x="201" y="619.0" type="curve" smooth="yes"/>
      <point x="291" y="619"/>
      <point x="372" y="545"/>
      <point x="372" y="355" type="curve" smooth="yes"/>
      <point x="372" y="129"/>
      <point x="254" y="-35"/>
      <point x="82" y="-93" type="curve"/>
    </contour>
  </outline>
</glyph>
<glyph name="one.lintab" format="2">
  <advance width="400"/>
  <outline>
    <contour>
      <point x="263" y="71" type="curve" smooth="yes"/>
      <point x="263" y="710" type="line"/>
      <point x="209" y="710" type="line"/>
      <point x="184" y="652"/>
      <point x="134" y="628"/>
      <point x="60" y="627" type="curve"/>
      <point x="60" y="569" type="line"/>
      <point x="119" y="568"/>
      <point x="180" y="617"/>
      <point x="194" y="669" type="curve"/>
      <point x="192" y="664"/>
      <point x="183" y="663"/>
      <point x="180" y="656" type="curve"/>
      <point x="180" y="71" type="line" smooth="yes"/>
      <point x="180" y="40"/>
      <point x="151" y="32"/>
      <point x="100" y="32" type="curve" smooth="yes"/>
      <point x="72" y="32" type="line"/>
      <point x="72" y="0" type="line"/>
      <point x="371" y="0" type="line"/>
      <point x="371" y="32" type="line"/>
      <point x="349" y="32" type="line" smooth="yes"/>
      <point x="294" y="32"/>
      <point x="263" y="40"/>
    </contour>
  </outline>
</glyph>
<glyph name="plus.sub" format="2">
  <advance width="400"/>
  <outline>
    <contour>
      <point x="186" y="235" type="line"/>
      <point x="186" y="-75" type="line"/>
      <point x="214" y="-75" type="line"/>
      <point x="214" y="235" type="line"/>
    </contour>
    <contour>
      <point x="307" y="94" type="line"/>
      <point x="95" y="94" type="line"/>
      <point x="95" y="66" type="line"/>
      <point x="307" y="66" type="line"/>
    </contour>
  </outline>
</glyph>
<glyph name="rupeeIndian" format="2">
  <advance width="393"/>
  <outline>
    <contour>
      <point x="46.02" y="511.35" type="line"/>
      <point x="46.02" y="476.05" type="line"/>
      <point x="376.6725" y="476.05" type="line"/>
      <point x="376.6725" y="511.35" type="line"/>
    </contour>
    <contour>
      <point x="77.7225" y="284.45" type="line"/>
      <point x="87.2025" y="284.45" type="line" smooth="yes"/>
      <point x="219.62" y="284.45"/>
      <point x="296.1375" y="373.9479719387775"/>
      <point x="296.1375" y="501.1" type="curve" smooth="yes"/>
      <point x="296.1375" y="599.95"/>
      <point x="252.4375445949325" y="670.999999533035"/>
      <point x="138.49" y="691.25" type="curve"/>
      <point x="132.9" y="693.35"/>
      <point x="123.845" y="688.05"/>
      <point x="132.0825" y="674.8" type="curve"/>
      <point x="376.6725" y="674.8" type="line"/>
      <point x="376.6725" y="710.0" type="line"/>
      <point x="46.02" y="710.0" type="line"/>
      <point x="46.02" y="674.6" type="line"/>
      <point x="96.79" y="674.6" type="line" smooth="yes"/>
      <point x="175.64" y="674.6"/>
      <point x="214.0375" y="610.2"/>
      <point x="214.0375" y="502.2" type="curve" smooth="yes"/>
      <point x="214.0375" y="391.5"/>
      <point x="180.3175" y="316.6"/>
      <point x="81.0525" y="316.6" type="curve" smooth="yes"/>
      <point x="46.02" y="316.6" type="line"/>
      <point x="46.02" y="293.4" type="line"/>
      <point x="239.3625" y="0.0" type="line"/>
      <point x="355.13" y="0.0" type="line"/>
      <point x="355.13" y="32.5" type="line"/>
      <point x="348.3575" y="32.5" type="line" smooth="yes"/>
      <point x="324.22499999999997" y="32.5"/>
      <point x="306.565" y="45.2"/>
      <point x="283.52750000000003" y="78.55" type="curve" smooth="yes"/>
      <point x="133.1925" y="300.95" type="line"/>
    </contour>
  </outline>
</glyph>
<glyph name="seven.lintab" format="2">
  <advance width="400"/>
  <outline>
    <contour>
      <point x="172" y="634" type="line" smooth="yes"/>
      <point x="108" y="634"/>
      <point x="100" y="627"/>
      <point x="90" y="578" type="curve" smooth="yes"/>
      <point x="74" y="502" type="line"/>
      <point x="50" y="502" type="line"/>
      <point x="50" y="710" type="line"/>
      <point x="386" y="710" type="line"/>
      <point x="386" y="659" type="line"/>
      <point x="306" y="496"/>
      <point x="238" y="338"/>
      <point x="219" y="0" type="curve"/>
      <point x="139" y="0" type="line"/>
      <point x="166" y="311"/>
      <point x="325" y="605"/>
      <point x="368" y="670" type="curve"/>
      <point x="371" y="634" type="line"/>
    </contour>
  </outline>
</glyph>
<glyph name="six.linprop" format="2">
  <advance width="387"/>
  <outline>
    <contour>
      <point x="320" y="718" type="line"/>
      <point x="190" y="664"/>
      <point x="105" y="512"/>
      <point x="105" y="279" type="curve" smooth="yes"/>
      <point x="105" y="104"/>
      <point x="141" y="20"/>
      <point x="202" y="20" type="curve" smooth="yes"/>
      <point x="261" y="20"/>
      <point x="287" y="98"/>
      <point x="287" y="231" type="curve" smooth="yes"/>
      <point x="287" y="352"/>
      <point x="264" y="419"/>
      <point x="203" y="419" type="curve" smooth="yes"/>
      <point x="161" y="419"/>
      <point x="122" y="387"/>
      <point x="100" y="287" type="curve"/>
      <point x="101" y="297"/>
      <point x="93" y="308"/>
      <point x="91" y="314" type="curve"/>
      <point x="109" y="407"/>
      <point x="154" y="453"/>
      <point x="221" y="453" type="curve" smooth="yes"/>
      <point x="312" y="453"/>
      <point x="367" y="367"/>
      <point x="367" y="233" type="curve" smooth="yes"/>
      <point x="367" y="89"/>
      <point x="301" y="-10"/>
      <point x="202" y="-10" type="curve" smooth="yes"/>
      <point x="101" y="-10"/>
      <point x="25" y="95"/>
      <point x="25" y="287" type="curve" smooth="yes"/>
      <point x="25" y="520"/>
      <point x="141" y="682"/>
      <point x="313" y="740" type="curve"/>
    </contour>
  </outline>
</glyph>
<glyph name="six.oldtab" format="2">
  <advance width="400"/>
  <outline>
    <contour>
      <point x="327" y="718" type="line"/>
      <point x="197" y="664"/>
      <point x="108" y="512"/>
      <point x="108" y="279" type="curve" smooth="yes"/>
      <point x="108" y="104"/>
      <point x="148" y="20"/>
      <point x="209" y="20" type="curve" smooth="yes"/>
      <point x="268" y="20"/>
      <point x="298" y="98"/>
      <point x="298" y="231" type="curve" smooth="yes"/>
      <point x="298" y="352"/>
      <point x="272" y="419"/>
      <point x="210" y="419" type="curve" smooth="yes"/>
      <point x="168" y="419"/>
      <point x="125" y="387"/>
      <point x="103" y="287" type="curve"/>
      <point x="104" y="297"/>
      <point x="96" y="308"/>
      <point x="94" y="314" type="curve"/>
      <point x="112" y="407"/>
      <point x="159" y="453"/>
      <point x="228" y="453" type="curve" smooth="yes"/>
      <point x="318" y="453"/>
      <point x="378" y="367"/>
      <point x="378" y="233" type="curve" smooth="yes"/>
      <point x="378" y="89"/>
      <point x="308" y="-10"/>
      <point x="209" y="-10" type="curve" smooth="yes"/>
      <point x="108" y="-10"/>
      <point x="28" y="95"/>
      <point x="28" y="287" type="curve" smooth="yes"/>
      <point x="28" y="520"/>
      <point x="148" y="682"/>
      <point x="320" y="740" type="curve"/>
    </contour>
  </outline>
</glyph>
<glyph name="three.midprop" format="2">
  <advance width="400"/>
  <guideline x="52" y="58" angle="283.276397042316" identifier="uu6tY1C5IY"/>
  <outline>
    <contour>
      <point x="179" y="-58" type="curve" smooth="yes"/>
      <point x="273" y="-58"/>
      <point x="305" y="9"/>
      <point x="305" y="107" type="curve" smooth="yes"/>
      <point x="305" y="222"/>
      <point x="261" y="269"/>
      <point x="177" y="269" type="curve" smooth="yes"/>
      <point x="135" y="269" type="line"/>
      <point x="135" y="299" type="line"/>
      <point x="170" y="299" type="line" smooth="yes"/>
      <point x="239" y="299"/>
      <point x="283" y="347"/>
      <point x="283" y="456" type="curve" smooth="yes"/>
      <point x="283" y="557"/>
      <point x="245" y="589"/>
      <point x="188" y="589" type="curve" smooth="yes"/>
      <point x="141" y="589"/>
      <point x="109" y="568"/>
      <point x="91" y="524" type="curve"/>
      <point x="93" y="539"/>
      <point x="108" y="574"/>
      <point x="124" y="576" type="curve"/>
      <point x="124" y="458" type="line"/>
      <point x="54" y="458" type="line"/>
      <point x="54" y="549" type="line"/>
      <point x="77" y="584"/>
      <point x="126" y="619"/>
      <point x="199" y="619" type="curve" smooth="yes"/>
      <point x="292" y="619"/>
      <point x="363" y="562"/>
      <point x="363" y="459" type="curve" smooth="yes"/>
      <point x="363" y="345"/>
      <point x="277" y="281"/>
      <point x="175" y="281" type="curve"/>
      <point x="206" y="294" type="line"/>
      <point x="205" y="280" type="line"/>
      <point x="188" y="291" type="line"/>
      <point x="312" y="291"/>
      <point x="385" y="222"/>
      <point x="385" y="108" type="curve" smooth="yes"/>
      <point x="385" y="-8"/>
      <point x="308" y="-90"/>
      <point x="187" y="-90" type="curve" smooth="yes"/>
      <point x="93" y="-90"/>
      <point x="29" y="-42"/>
      <point x="8" y="47" type="curve"/>
      <point x="40" y="58" type="line"/>
      <point x="56" y="-10"/>
      <point x="99" y="-58"/>
    </contour>
  </outline>
</glyph>
<glyph name="three.oldtab" format="2">
  <advance width="400"/>
  <guideline x="52" y="58" angle="283.276397042316" identifier="uu6tY1C5IY"/>
  <outline>
    <contour>
      <point x="174.0" y="-90.0" type="curve" smooth="yes"/>
      <point x="82.0" y="-90"/>
      <point x="18" y="-42"/>
      <point x="-3" y="47" type="curve"/>
      <point x="29" y="58" type="line"/>
      <point x="45" y="-10"/>
      <point x="88" y="-58"/>
      <point x="167" y="-58.0" type="curve" smooth="yes"/>
      <point x="260.0" y="-58.0"/>
      <point x="289" y="9"/>
      <point x="289" y="107" type="curve" smooth="yes"/>
      <point x="289" y="222"/>
      <point x="250" y="269"/>
      <point x="166" y="269" type="curve" smooth="yes"/>
      <point x="124" y="269" type="line"/>
      <point x="124" y="299" type="line"/>
      <point x="159" y="299" type="line" smooth="yes"/>
      <point x="228" y="299"/>
      <point x="267" y="347"/>
      <point x="267" y="456" type="curve" smooth="yes"/>
      <point x="267" y="557"/>
      <point x="232" y="589"/>
      <point x="176.0" y="589.0" type="curve" smooth="yes"/>
      <point x="130.0" y="589.0"/>
      <point x="98" y="568"/>
      <point x="80" y="524" type="curve"/>
      <point x="82" y="539"/>
      <point x="97" y="574"/>
      <point x="113" y="576" type="curve"/>
      <point x="113" y="458" type="line"/>
      <point x="43" y="458" type="line"/>
      <point x="43" y="549" type="line"/>
      <point x="66" y="584"/>
      <point x="115" y="619"/>
      <point x="187.0" y="619.0" type="curve" smooth="yes"/>
      <point x="279.0" y="619.0"/>
      <point x="347" y="562"/>
      <point x="347" y="459" type="curve" smooth="yes"/>
      <point x="347" y="345"/>
      <point x="266" y="281"/>
      <point x="164" y="281" type="curve"/>
      <point x="195" y="294" type="line"/>
      <point x="194" y="280" type="line"/>
      <point x="177" y="291" type="line"/>
      <point x="301" y="291"/>
      <point x="369" y="222"/>
      <point x="369" y="108" type="curve" smooth="yes"/>
      <point x="369" y="-8"/>
      <point x="295" y="-90"/>
    </contour>
  </outline>
</glyph>
<glyph name="two.lintab" format="2">
  <advance width="400"/>
  <outline>
    <contour>
      <point x="176" y="720" type="curve" smooth="yes"/>
      <point x="264" y="720"/>
      <point x="351" y="667"/>
      <point x="351" y="523" type="curve" smooth="yes"/>
      <point x="351" y="318"/>
      <point x="176" y="170"/>
      <point x="47" y="39" type="curve"/>
      <point x="44" y="42"/>
      <point x="65" y="68"/>
      <point x="67" y="75" type="curve"/>
      <point x="248" y="75" type="line" smooth="yes"/>
      <point x="308" y="75"/>
      <point x="322" y="86"/>
      <point x="331" y="131" type="curve" smooth="yes"/>
      <point x="344" y="194" type="line"/>
      <point x="368" y="194" type="line"/>
      <point x="368" y="0" type="line"/>
      <point x="18" y="0" type="line"/>
      <point x="18" y="45" type="line"/>
      <point x="155" y="194"/>
      <point x="269" y="310"/>
      <point x="269" y="523" type="curve" smooth="yes"/>
      <point x="269" y="660"/>
      <point x="224" y="690"/>
      <point x="166" y="690" type="curve" smooth="yes"/>
      <point x="120" y="690"/>
      <point x="86" y="671"/>
      <point x="68" y="627" type="curve"/>
      <point x="70" y="642"/>
      <point x="85" y="685"/>
      <point x="101" y="687" type="curve"/>
      <point x="101" y="559" type="line"/>
      <point x="31" y="559" type="line"/>
      <point x="31" y="650" type="line"/>
      <point x="54" y="683"/>
      <point x="103" y="720"/>
    </contour>
  </outline>
</glyph>
<glyph name="two.oldtab" format="2">
  <advance width="400"/>
  <outline>
    <contour>
      <point x="243" y="75" type="line" smooth="yes"/>
      <point x="303" y="75"/>
      <point x="317" y="86"/>
      <point x="326" y="131" type="curve" smooth="yes"/>
      <point x="339" y="194" type="line"/>
      <point x="363" y="194" type="line"/>
      <point x="363" y="0" type="line"/>
      <point x="23" y="0" type="line"/>
      <point x="23" y="45" type="line"/>
      <point x="160" y="174"/>
      <point x="264" y="278"/>
      <point x="264" y="453" type="curve" smooth="yes"/>
      <point x="264" y="558"/>
      <point x="227" y="589"/>
      <point x="170" y="589" type="curve" smooth="yes"/>
      <point x="123" y="589"/>
      <point x="91" y="568"/>
      <point x="73" y="524" type="curve"/>
      <point x="75" y="539"/>
      <point x="90" y="574"/>
      <point x="106" y="576" type="curve"/>
      <point x="106" y="458" type="line"/>
      <point x="36" y="458" type="line"/>
      <point x="36" y="549" type="line"/>
      <point x="59" y="584"/>
      <point x="109" y="619"/>
      <point x="183" y="619" type="curve" smooth="yes"/>
      <point x="270" y="619"/>
      <point x="346" y="570"/>
      <point x="346" y="454" type="curve" smooth="yes"/>
      <point x="346" y="281"/>
      <point x="181" y="150"/>
      <point x="52" y="39" type="curve"/>
      <point x="49" y="42"/>
      <point x="70" y="68"/>
      <point x="72" y="75" type="curve"/>
    </contour>
  </outline>
</glyph>
<glyph name="uni20B8.proportional" format="2">
  <advance width="432"/>
  <outline>
    <contour>
      <point x="30.4425" y="710.0" type="line"/>
      <point x="30.4425" y="674.95" type="line"/>
      <point x="401.8625" y="674.95" type="line"/>
      <point x="401.8625" y="710.0" type="line"/>
    </contour>
    <contour>
      <point x="30.4425" y="576.45" type="line"/>
      <point x="30.4425" y="389.6" type="line"/>
      <point x="57.76" y="389.6" type="line"/>
      <point x="69.4975" y="484.85" type="line" smooth="yes"/>
      <point x="74.3025" y="526.7"/>
      <point x="97.82499999999999" y="541.4"/>
      <point x="154.11" y="541.4" type="curve" smooth="yes"/>
      <point x="176.435" y="541.4" type="line"/>
      <point x="176.435" y="68.6" type="line" smooth="yes"/>
      <point x="176.435" y="39.6"/>
      <point x="151.7425" y="32.6"/>
      <point x="124.15" y="32.6" type="curve" smooth="yes"/>
      <point x="113.4225" y="32.6" type="line"/>
      <point x="113.4225" y="0.0" type="line"/>
      <point x="318.755" y="0.0" type="line"/>
      <point x="318.755" y="32.6" type="line"/>
      <point x="308.0275" y="32.6" type="line" smooth="yes"/>
      <point x="279.84000000000003" y="32.6"/>
      <point x="255.1475" y="39.6"/>
      <point x="255.1475" y="68.6" type="curve" smooth="yes"/>
      <point x="255.1475" y="541.4" type="line"/>
      <point x="278.0675" y="541.4" type="line" smooth="yes"/>
      <point x="334.3525" y="541.4"/>
      <point x="357.1525" y="526.7"/>
      <point x="362.085" y="484.85" type="curve" smooth="yes"/>
      <point x="374.545" y="389.6" type="line"/>
      <point x="401.8625" y="389.6" type="line"/>
      <point x="401.8625" y="576.45" type="line"/>
    </contour>
  </outline>
</glyph>
<glyph name="whitediamond" format="2">
  <advance width="437"/>
  <outline>
    <contour>
      <point x="218.35" y="52.0" type="line"/>
      <point x="402.0" y="313.0" type="line"/>
      <point x="218.35" y="574.0" type="line"/>
      <point x="34.7" y="313.0" type="line"/>
    </contour>
    <contour>
      <point x="218.35" y="106.0" type="line"/>
      <point x="73.4" y="313.0" type="line"/>
      <point x="218.35" y="520.0" type="line"/>
      <point x="364.15" y="313.0" type="line"/>
    </contour>
  </outline>
</glyph>
<glyph name="whiterightpointingtriangle" format="2">
  <advance width="400"/>
  <outline>
    <contour>
      <point x="91" y="545" type="line"/>
      <point x="91" y="10" type="line"/>
      <point x="353" y="277" type="line"/>
    </contour>
    <contour>
      <point x="119" y="474" type="line"/>
      <point x="116" y="470" type="line"/>
      <point x="310" y="274" type="line"/>
      <point x="310" y="281" type="line"/>
      <point x="116" y="84" type="line"/>
      <point x="119" y="80" type="line"/>
    </contour>
  </outline>
</glyph>
<glyph name="yen.proportional" format="2">
  <advance width="424"/>
  <outline>
    <contour>
      <point x="49.965" y="345.5" type="line"/>
      <point x="49.965" y="310.4" type="line"/>
      <point x="376.6325" y="310.4" type="line"/>
      <point x="376.6325" y="345.5" type="line"/>
    </contour>
    <contour>
      <point x="49.965" y="215.4" type="line"/>
      <point x="49.965" y="180.3" type="line"/>
      <point x="376.6325" y="180.3" type="line"/>
      <point x="376.6325" y="215.4" type="line"/>
    </contour>
    <contour>
      <point x="172.66" y="340.9" type="line"/>
      <point x="172.66" y="68.6" type="line" smooth="yes"/>
      <point x="172.66" y="39.6"/>
      <point x="148.54" y="32.6"/>
      <point x="120.375" y="32.6" type="curve" smooth="yes"/>
      <point x="109.64750000000001" y="32.6" type="line"/>
      <point x="109.64750000000001" y="0.0" type="line"/>
      <point x="318.055" y="0.0" type="line"/>
      <point x="318.055" y="32.6" type="line"/>
      <point x="307.3275" y="32.6" type="line" smooth="yes"/>
      <point x="279.885" y="32.6"/>
      <point x="255.0425" y="39.6"/>
      <point x="255.0425" y="68.6" type="curve" smooth="yes"/>
      <point x="255.0425" y="340.9" type="line"/>
    </contour>
    <contour>
      <point x="240.765" y="291.05" type="line"/>
      <point x="358.055" y="611.7" type="line" smooth="yes"/>
      <point x="375.31" y="658.05"/>
      <point x="389.37" y="677.4"/>
      <point x="408.73" y="677.4" type="curve" smooth="yes"/>
      <point x="413.18" y="677.4" type="line"/>
      <point x="413.18" y="710.0" type="line"/>
      <point x="279.9375" y="710.0" type="line"/>
      <point x="279.9375" y="677.4" type="line"/>
      <point x="296.685" y="677.4" type="line" smooth="yes"/>
      <point x="328.6875" y="677.4"/>
      <point x="339.865" y="666.6"/>
      <point x="339.865" y="654.65" type="curve"/>
      <point x="226.20999999999998" y="338.45" type="line"/>
      <point x="249.8075" y="340.45" type="line"/>
      <point x="123.66" y="663.6" type="line"/>
      <point x="123.66" y="673.45"/>
      <point x="149.1575" y="677.4"/>
      <point x="170.0225" y="677.4" type="curve" smooth="yes"/>
      <point x="179.9325" y="677.4" type="line"/>
      <point x="179.9325" y="710.0" type="line"/>
      <point x="4.9125" y="710.0" type="line"/>
      <point x="4.9125" y="677.4" type="line"/>
      <point x="8.535" y="677.4" type="line" smooth="yes"/>
      <point x="24.9175" y="677.4"/>
      <point x="35.8725" y="674.35"/>
      <point x="47.15" y="647.6" type="curve" smooth="yes"/>
      <point x="187.26" y="293.05" type="line"/>
    </contour>
  </outline>
</glyph>
